HIERARCHY
ROOT Hips
{
	OFFSET 0.000000 0.000000 0.000000
	CHANNELS 6 Xposition Yposition Zposition Yrotation Xrotation Zrotation
	JOINT Chest
	{
		OFFSET 0.000000 -0.009281 11.569106
		CHANNELS 3 Yrotation Xrotation Zrotation
		JOINT Chest2
		{
			OFFSET -0.000000 0.016865 9.269641
			CHANNELS 3 Yrotation Xrotation Zrotation
			JOINT Chest3
			{
				OFFSET -0.000000 0.000001 8.374491
				CHANNELS 3 Yrotation Xrotation Zrotation
				JOINT Chest4
				{
					OFFSET -0.000000 0.000001 8.374493
					CHANNELS 3 Yrotation Xrotation Zrotation
					JOINT Neck
					{
						OFFSET -0.000000 0.000002 12.152554
						CHANNELS 3 Yrotation Xrotation Zrotation
						JOINT Head
						{
							OFFSET -0.000000 0.040101 7.802319
							CHANNELS 3 Yrotation Xrotation Zrotation
							End Site
							{
								OFFSET -0.000000 0.020947 14.853096
							}
						}
					}
					JOINT RightCollar
					{
						OFFSET 2.894404 0.000001 6.791374
						CHANNELS 3 Yrotation Xrotation Zrotation
						JOINT RightShoulder
						{
							OFFSET 13.574684 0.000001 0.000000
							CHANNELS 3 Yrotation Xrotation Zrotation
							JOINT RightElbow
							{
								OFFSET 23.923903 0.000002 0.000000
								CHANNELS 3 Yrotation Xrotation Zrotation
								JOINT RightWrist
								{
									OFFSET 19.846718 0.012767 0.000000
									CHANNELS 3 Yrotation Xrotation Zrotation
									End Site
									{
										OFFSET 14.973145 0.000001 0.000000
									}
								}
							}
						}
					}
					JOINT LeftCollar
					{
						OFFSET -2.894404 0.000001 6.791374
						CHANNELS 3 Yrotation Xrotation Zrotation
						JOINT LeftShoulder
						{
							OFFSET -13.574684 -0.000001 0.000000
							CHANNELS 3 Yrotation Xrotation Zrotation
							JOINT LeftElbow
							{
								OFFSET -23.923903 -0.000002 0.000000
								CHANNELS 3 Yrotation Xrotation Zrotation
								JOINT LeftWrist
								{
									OFFSET -19.846718 0.012763 0.000000
									CHANNELS 3 Yrotation Xrotation Zrotation
									End Site
									{
										OFFSET -14.973145 -0.000001 0.000000
									}
								}
							}
						}
					}
				}
			}
		}
	}
	JOINT RightHip
	{
		OFFSET 9.469263 0.004643 0.045487
		CHANNELS 3 Yrotation Xrotation Zrotation
		JOINT RightKnee
		{
			OFFSET 0.000000 0.002661 -40.478676
			CHANNELS 3 Yrotation Xrotation Zrotation
			JOINT RightAnkle
			{
				OFFSET 0.000000 0.049106 -35.224068
				CHANNELS 3 Yrotation Xrotation Zrotation
				JOINT RightToe
				{
					OFFSET -0.000001 12.539529 -6.151390
					CHANNELS 3 Yrotation Xrotation Zrotation
					End Site
					{
						OFFSET -0.000001 5.044994 -1.291870
					}
				}
			}
		}
	}
	JOINT LeftHip
	{
		OFFSET -9.469263 0.004641 0.045487
		CHANNELS 3 Yrotation Xrotation Zrotation
		JOINT LeftKnee
		{
			OFFSET 0.000000 0.002661 -40.478676
			CHANNELS 3 Yrotation Xrotation Zrotation
			JOINT LeftAnkle
			{
				OFFSET 0.000000 0.049106 -35.224068
				CHANNELS 3 Yrotation Xrotation Zrotation
				JOINT LeftToe
				{
					OFFSET -0.000001 12.539529 -6.151390
					CHANNELS 3 Yrotation Xrotation Zrotation
					End Site
					{
						OFFSET -0.000001 5.044994 -1.291870
					}
				}
			}
		}
	}
}
MOTION
Frames: 13
Frame Time: 0.016667
37.552719 11.322486 81.906693 -6.161138 -1.788725 -131.620327 -1.653317 -5.490805 0.679426 -0.706895 -2.440308 0.244138 -0.706896 -2.440308 0.244143 -0.529117 -1.830517 0.180251 -0.888065 -15.343716 3.527995 -0.342094 7.656393 6.262673 9.883895 9.879677 0.431095 42.623994 -15.554586 -17.606653 -48.444131 -59.879661 112.368742 -66.261981 38.686748 33.452702 -7.235776 7.171426 -3.304486 -41.148543 -16.516089 22.590608 18.316892 -61.512554 -84.261831 38.104618 28.627169 -66.808928 -11.559812 6.989456 -32.940793 0.234391 1.166412 -11.129481 3.524273 -16.960953 -2.050462 0.037926 -0.047658 0.062102 -9.711801 -7.681768 14.047356 -1.878374 -2.095807 11.740998 6.194312 6.725895 11.019512 0.048502 -0.130903 -0.011925 
37.532532 11.320873 81.908470 -6.169086 -1.782611 -131.641992 -1.665387 -5.499504 0.691481 -0.711712 -2.443878 0.249362 -0.711713 -2.443878 0.249357 -0.532706 -1.833203 0.184144 -0.862611 -15.365146 3.541614 -0.290427 7.615051 6.297052 9.888529 9.885262 0.439740 42.645266 -15.548973 -17.623242 -48.456743 -59.871813 112.355574 -66.261673 38.690184 33.454465 -7.241589 7.190457 -3.302509 -41.157726 -16.452862 22.634895 18.390662 -61.492337 -84.323303 38.078253 28.600905 -66.841625 -11.555387 7.011090 -32.892128 0.232893 1.158925 -11.178854 3.496257 -16.957428 -2.030268 0.037428 -0.050675 0.061932 -9.709034 -7.663815 13.990932 -1.887505 -2.112185 11.760268 6.186498 6.712605 11.085622 0.044493 -0.123893 -0.012103 
37.511154 11.321091 81.910889 -6.177780 -1.778780 -131.670884 -1.680884 -5.505349 0.703107 -0.717640 -2.446606 0.255903 -0.717640 -2.446606 0.255904 -0.537124 -1.835258 0.189019 -0.841958 -15.385245 3.556085 -0.247378 7.576351 6.331236 9.897983 9.896312 0.457801 42.663407 -15.549721 -17.661114 -48.481181 -59.862052 112.355574 -66.265949 38.693001 33.447781 -7.246151 7.205316 -3.294723 -41.163535 -16.394588 22.670468 18.474352 -61.475780 -84.392800 38.049703 28.592704 -66.874573 -11.548363 7.033584 -32.848798 0.230545 1.153792 -11.207187 3.470169 -16.958969 -2.016507 0.036912 -0.051092 0.060955 -9.704441 -7.651962 13.953341 -1.888471 -2.131175 11.788079 6.170103 6.704418 11.048552 0.036693 -0.118057 -0.014071 
37.489594 11.316739 81.913208 -6.188094 -1.782953 -131.708491 -1.695081 -5.513433 0.717428 -0.724261 -2.449909 0.262999 -0.724261 -2.449909 0.263002 -0.542059 -1.837747 0.194315 -0.828189 -15.403379 3.571903 -0.216614 7.541551 6.365416 9.908975 9.924791 0.472747 42.674711 -15.556610 -17.709717 -48.509735 -59.872892 112.367868 -66.269200 38.693479 33.444530 -7.256169 7.227132 -3.288909 -41.165728 -16.357395 22.710558 18.544821 -61.453889 -84.453520 38.026351 28.581898 -66.910166 -11.529494 7.049738 -32.798995 0.223484 1.152806 -11.232185 3.446333 -16.960043 -2.001811 0.035264 -0.051481 0.060100 -9.700028 -7.641939 13.932100 -1.887807 -2.149845 11.821486 6.160905 6.698287 11.017009 0.026823 -0.115792 -0.014214 
37.470631 11.312702 81.914650 -6.200358 -1.787816 -131.757231 -1.712735 -5.521968 0.734835 -0.732540 -2.453815 0.271213 -0.732540 -2.453814 0.271209 -0.548231 -1.840689 0.200429 -0.819477 -15.417513 3.588585 -0.194797 7.514382 6.399428 9.917757 9.938866 0.476050 42.681958 -15.549327 -17.738578 -48.562512 -59.895998 112.402804 -66.275921 38.690341 33.442204 -7.262796 7.245013 -3.288261 -41.161442 -16.327419 22.746704 18.620619 -61.429287 -84.521323 38.011212 28.571834 -66.946202 -11.514645 7.069929 -32.743247 0.218592 1.141648 -11.252615 3.424989 -16.953424 -1.989768 0.032277 -0.054017 0.059013 -9.699723 -7.641150 13.917355 -1.887970 -2.157744 11.843338 6.157836 6.691076 11.041650 0.016025 -0.115064 -0.015048 
37.456509 11.308532 81.915146 -6.209942 -1.791100 -131.816135 -1.729488 -5.533105 0.753576 -0.741053 -2.458742 0.279162 -0.741054 -2.458742 0.279157 -0.554581 -1.844399 0.206358 -0.814860 -15.426583 3.606753 -0.179860 7.496739 6.434815 9.921784 9.924117 0.475135 42.693631 -15.528925 -17.739565 -48.603332 -59.916161 112.420720 -66.282027 38.689402 33.444001 -7.269874 7.244303 -3.289434 -41.153259 -16.290213 22.767595 18.723384 -61.390737 -84.612650 37.992418 28.562825 -66.977491 -11.506021 7.094706 -32.674573 0.221557 1.121887 -11.279333 3.403867 -16.941393 -1.976996 0.029081 -0.056616 0.058062 -9.705484 -7.636379 13.908469 -1.887451 -2.165951 11.850991 6.163951 6.687250 11.115297 0.004984 -0.115690 -0.015079 
37.444530 11.307585 81.915413 -6.222029 -1.794964 -131.874465 -1.748300 -5.543741 0.766858 -0.750857 -2.464143 0.285106 -0.750857 -2.464143 0.285106 -0.561906 -1.848462 0.210760 -0.811903 -15.433410 3.625766 -0.167606 7.483313 6.471220 9.924190 9.889591 0.478788 42.718421 -15.511655 -17.735428 -48.614169 -59.926823 112.404211 -66.301111 38.699357 33.432868 -7.267726 7.225167 -3.285271 -41.149195 -16.254653 22.772153 18.809810 -61.347004 -84.688697 37.967212 28.549386 -67.006772 -11.499653 7.113515 -32.620929 0.227201 1.112254 -11.303293 3.378000 -16.939141 -1.952446 0.026708 -0.057275 0.058043 -9.710585 -7.634467 13.877106 -1.892362 -2.177893 11.860534 6.179140 6.685436 11.199121 -0.007904 -0.115143 -0.015675 
37.432320 11.306627 81.915764 -6.235946 -1.802510 -131.928833 -1.766257 -5.560134 0.775119 -0.760762 -2.471910 0.289241 -0.760763 -2.471910 0.289245 -0.569314 -1.854297 0.213820 -0.809670 -15.437049 3.643532 -0.157020 7.475868 6.505132 9.926838 9.871880 0.474746 42.759429 -15.519636 -17.740375 -48.614944 -59.921407 112.359740 -66.302866 38.702178 33.437222 -7.264099 7.221439 -3.288811 -41.140955 -16.241616 22.775816 18.865368 -61.311541 -84.743065 37.945505 28.543565 -67.041544 -11.491635 7.122571 -32.574070 0.236466 1.110895 -11.320242 3.350214 -16.942344 -1.929637 0.025754 -0.055617 0.058367 -9.712415 -7.637125 13.826656 -1.900302 -2.190450 11.875138 6.197596 6.684140 11.259232 -0.018931 -0.114063 -0.015578 
37.419788 11.306334 81.915329 -6.251006 -1.809569 -131.981207 -1.785979 -5.578210 0.779051 -0.771173 -2.480305 0.292102 -0.771173 -2.480305 0.292103 -0.577103 -1.860602 0.215907 -0.809600 -15.439093 3.659471 -0.151079 7.471536 6.534880 9.933617 9.866416 0.476679 42.795493 -15.516424 -17.756400 -48.624455 -59.925471 112.330732 -66.291596 38.693373 33.453556 -7.263267 7.224563 -3.291362 -41.119211 -16.253668 22.777414 18.908489 -61.288312 -84.795644 37.946137 28.546827 -67.063032 -11.484733 7.127854 -32.525877 0.249024 1.115882 -11.332821 3.323394 -16.946814 -1.912073 0.023892 -0.055373 0.058095 -9.716012 -7.642025 13.786513 -1.904756 -2.200911 11.889605 6.214720 6.685043 11.278638 -0.029253 -0.114325 -0.016326 
37.408443 11.306314 81.913574 -6.261936 -1.816242 -132.036286 -1.804708 -5.597724 0.781129 -0.780496 -2.489008 0.293646 -0.780496 -2.489008 0.293648 -0.584083 -1.867136 0.217019 -0.813554 -15.438662 3.675132 -0.152634 7.471997 6.562681 9.935464 9.850715 0.477889 42.826130 -15.487891 -17.762595 -48.664206 -59.933865 112.336231 -66.278195 38.682951 33.473562 -7.262609 7.219173 -3.298921 -41.088444 -16.270352 22.778474 18.941312 -61.268750 -84.846113 37.954706 28.556698 -67.076344 -11.477775 7.134956 -32.483311 0.265722 1.121042 -11.332232 3.301401 -16.949234 -1.901527 0.019484 -0.056247 0.057720 -9.719582 -7.645568 13.776412 -1.910964 -2.204804 11.906302 6.233674 6.690242 11.289039 -0.037004 -0.117530 -0.016831 
37.398754 11.305844 81.910851 -6.268249 -1.818918 -132.096159 -1.820252 -5.614384 0.781922 -0.788983 -2.496334 0.294097 -0.788983 -2.496335 0.294099 -0.590441 -1.872635 0.217313 -0.823487 -15.437836 3.690588 -0.165411 7.473493 6.587870 9.932270 9.815643 0.470202 42.853888 -15.450655 -17.746394 -48.710385 -59.947471 112.353381 -66.263128 38.672620 33.489001 -7.262340 7.210523 -3.305237 -41.058466 -16.295529 22.783283 18.960798 -61.251866 -84.882975 37.970203 28.563602 -67.084977 -11.469859 7.148148 -32.436223 0.279134 1.126355 -11.320134 3.291974 -16.948496 -1.904131 0.011848 -0.059028 0.057248 -9.725697 -7.640373 13.790272 -1.920571 -2.209817 11.923076 6.253786 6.703062 11.361577 -0.040059 -0.122508 -0.016883 
37.390213 11.310633 81.907616 -6.268533 -1.816675 -132.156101 -1.834582 -5.627110 0.779951 -0.795507 -2.502252 0.294053 -0.795508 -2.502252 0.294057 -0.595332 -1.877076 0.217251 -0.837440 -15.437394 3.703910 -0.186502 7.474536 6.607561 9.933824 9.792897 0.472176 42.886604 -15.436748 -17.746387 -48.711512 -59.953748 112.328642 -66.256960 38.672043 33.502436 -7.255795 7.189009 -3.306932 -41.037925 -16.314740 22.780254 18.974216 -61.232885 -84.911068 37.987036 28.554297 -67.088953 -11.463685 7.177146 -32.374079 0.279152 1.121653 -11.304191 3.306842 -16.947142 -1.927654 0.000106 -0.060471 0.056795 -9.729728 -7.633326 13.811794 -1.928137 -2.215361 11.932014 6.268816 6.721518 11.354419 -0.042795 -0.127119 -0.018713 
37.381962 11.316231 81.903831 -6.263668 -1.809974 -132.214089 -1.842092 -5.634828 0.774854 -0.799299 -2.505714 0.292627 -0.799299 -2.505714 0.292625 -0.598179 -1.879673 0.216154 -0.857377 -15.439460 3.716914 -0.218995 7.471231 6.624378 9.931413 9.756270 0.468299 42.912443 -15.429051 -17.741579 -48.696254 -59.949042 112.291896 -66.250847 38.673805 33.521732 -7.252747 7.158822 -3.306126 -41.023134 -16.326816 22.768767 18.991881 -61.218999 -84.939208 37.997609 28.544143 -67.085811 -11.457904 7.211699 -32.310756 0.277340 1.117537 -11.291477 3.328208 -16.944963 -1.948239 -0.012297 -0.062603 0.056227 -9.735665 -7.615985 13.829370 -1.936095 -2.222996 11.940520 6.287096 6.741974 11.315987 -0.044020 -0.132236 -0.019724 
